<svg width="654" height="300" viewBox="0 0 654 300" fill="none" xmlns="http://www.w3.org/2000/svg">
<path d="M212.4 226C203.733 226 195.867 223.8 188.8 219.4C181.867 215 176.333 209.067 172.2 201.6C168.2 194 166.2 185.533 166.2 176.2C166.2 166.733 168.2 158.267 172.2 150.8C176.333 143.2 181.867 137.2 188.8 132.8C195.867 128.267 203.733 126 212.4 126C219.733 126 226.2 127.6 231.8 130.8C237.533 133.867 242.067 138.133 245.4 143.6C248.733 149.067 250.4 155.267 250.4 162.2V189.8C250.4 196.733 248.733 202.933 245.4 208.4C242.2 213.867 237.733 218.2 232 221.4C226.267 224.467 219.733 226 212.4 226ZM216 205.2C221.467 205.2 226.2 204 230.2 201.6C234.333 199.067 237.533 195.6 239.8 191.2C242.067 186.8 243.2 181.733 243.2 176C243.2 170.267 242.067 165.2 239.8 160.8C237.533 156.4 234.333 153 230.2 150.6C226.2 148.067 221.467 146.8 216 146.8C210.667 146.8 205.933 148.067 201.8 150.6C197.8 153 194.6 156.4 192.2 160.8C189.933 165.2 188.8 170.267 188.8 176C188.8 181.733 189.933 186.8 192.2 191.2C194.6 195.6 197.8 199.067 201.8 201.6C205.933 204 210.667 205.2 216 205.2ZM263.8 224H241.8V198.2L245.6 174.8L241.8 151.6V80H263.8V224ZM284.216 224V128H306.216V224H284.216ZM306.216 170.6L298.616 166.8C298.616 154.667 301.282 144.867 306.616 137.4C312.082 129.8 320.282 126 331.216 126C336.016 126 340.349 126.867 344.216 128.6C348.082 130.333 351.682 133.133 355.016 137L340.616 151.8C338.882 149.933 336.949 148.6 334.816 147.8C332.682 147 330.216 146.6 327.416 146.6C321.282 146.6 316.216 148.533 312.216 152.4C308.216 156.267 306.216 162.333 306.216 170.6ZM402.731 226C393.398 226 384.931 223.8 377.331 219.4C369.731 214.867 363.665 208.8 359.131 201.2C354.731 193.6 352.531 185.133 352.531 175.8C352.531 166.467 354.731 158.067 359.131 150.6C363.665 143.133 369.731 137.2 377.331 132.8C384.931 128.267 393.398 126 402.731 126C412.198 126 420.731 128.2 428.331 132.6C435.931 137 441.931 143 446.331 150.6C450.865 158.067 453.131 166.467 453.131 175.8C453.131 185.133 450.865 193.6 446.331 201.2C441.931 208.8 435.931 214.867 428.331 219.4C420.731 223.8 412.198 226 402.731 226ZM402.731 204.8C408.198 204.8 412.998 203.6 417.131 201.2C421.398 198.667 424.665 195.2 426.931 190.8C429.331 186.4 430.531 181.4 430.531 175.8C430.531 170.2 429.331 165.267 426.931 161C424.531 156.733 421.265 153.4 417.131 151C412.998 148.467 408.198 147.2 402.731 147.2C397.398 147.2 392.598 148.467 388.331 151C384.198 153.4 380.931 156.733 378.531 161C376.265 165.267 375.131 170.2 375.131 175.8C375.131 181.4 376.265 186.4 378.531 190.8C380.931 195.2 384.198 198.667 388.331 201.2C392.598 203.6 397.398 204.8 402.731 204.8ZM518.827 226C511.493 226 504.96 224.467 499.227 221.4C493.493 218.2 488.96 213.867 485.627 208.4C482.427 202.933 480.827 196.733 480.827 189.8V162.2C480.827 155.267 482.493 149.067 485.827 143.6C489.16 138.133 493.693 133.867 499.427 130.8C505.16 127.6 511.627 126 518.827 126C527.493 126 535.293 128.267 542.227 132.8C549.293 137.2 554.827 143.2 558.827 150.8C562.96 158.267 565.027 166.733 565.027 176.2C565.027 185.533 562.96 194 558.827 201.6C554.827 209.067 549.293 215 542.227 219.4C535.293 223.8 527.493 226 518.827 226ZM467.427 264V128H489.427V153.8L485.627 177.2L489.427 200.4V264H467.427ZM515.227 205.2C520.56 205.2 525.227 204 529.227 201.6C533.36 199.067 536.56 195.6 538.827 191.2C541.227 186.8 542.427 181.733 542.427 176C542.427 170.267 541.227 165.2 538.827 160.8C536.56 156.4 533.36 153 529.227 150.6C525.227 148.067 520.56 146.8 515.227 146.8C509.893 146.8 505.16 148.067 501.027 150.6C496.893 153 493.693 156.4 491.427 160.8C489.16 165.2 488.027 170.267 488.027 176C488.027 181.733 489.16 186.8 491.427 191.2C493.693 195.6 496.893 199.067 501.027 201.6C505.16 204 509.893 205.2 515.227 205.2ZM610.842 226C605.509 226 600.376 225.333 595.442 224C590.509 222.533 585.976 220.533 581.842 218C577.709 215.333 574.109 212.133 571.042 208.4L585.042 194.4C588.376 198.267 592.176 201.2 596.442 203.2C600.842 205.067 605.776 206 611.242 206C616.176 206 619.909 205.267 622.442 203.8C624.976 202.333 626.242 200.2 626.242 197.4C626.242 194.467 625.042 192.2 622.642 190.6C620.242 189 617.109 187.667 613.242 186.6C609.509 185.4 605.509 184.2 601.242 183C597.109 181.8 593.109 180.2 589.242 178.2C585.509 176.067 582.442 173.2 580.042 169.6C577.642 166 576.442 161.333 576.442 155.6C576.442 149.467 577.842 144.2 580.642 139.8C583.576 135.4 587.642 132 592.842 129.6C598.176 127.2 604.509 126 611.842 126C619.576 126 626.376 127.4 632.242 130.2C638.242 132.867 643.242 136.933 647.242 142.4L633.242 156.4C630.442 152.933 627.242 150.333 623.642 148.6C620.042 146.867 615.909 146 611.242 146C606.842 146 603.442 146.667 601.042 148C598.642 149.333 597.442 151.267 597.442 153.8C597.442 156.467 598.642 158.533 601.042 160C603.442 161.467 606.509 162.733 610.242 163.8C614.109 164.867 618.109 166.067 622.242 167.4C626.509 168.6 630.509 170.333 634.242 172.6C638.109 174.733 641.242 177.667 643.642 181.4C646.042 185 647.242 189.733 647.242 195.6C647.242 204.933 643.976 212.333 637.442 217.8C630.909 223.267 622.042 226 610.842 226Z" fill="#010101"/>
<circle cx="70" cy="154" r="60" stroke="#010101" stroke-width="20"/>
<path d="M70.2998 223.623C63.2896 223.623 57.6068 217.94 57.6068 210.93V179.441C57.6068 172.431 63.2896 166.748 70.2998 166.748V166.748C77.3099 166.748 82.9928 172.431 82.9928 179.441V210.93C82.9928 217.94 77.3099 223.623 70.2998 223.623V223.623ZM70.2998 154.129C66.8659 154.129 63.9226 152.991 61.4698 150.714C59.0171 148.437 57.7907 145.698 57.7907 142.498C57.7907 139.298 59.0171 136.559 61.4698 134.282C63.9226 132.005 66.8659 130.866 70.2998 130.866C73.7643 130.866 76.7076 132.005 79.1297 134.282C81.5824 136.559 82.8088 139.298 82.8088 142.498C82.8088 145.698 81.5824 148.437 79.1297 150.714C76.7076 152.991 73.7643 154.129 70.2998 154.129Z" fill="#010101"/>
</svg>
